<?xml version="1.0" standalone="no"?>
<!DOCTYPE svg PUBLIC "-//W3C//DTD SVG 20010904//EN"
 "http://www.w3.org/TR/2001/REC-SVG-20010904/DTD/svg10.dtd">
<svg version="1.0" xmlns="http://www.w3.org/2000/svg"
 width="1024.000000pt" height="1024.000000pt" viewBox="0 0 1024.000000 1024.000000"
 preserveAspectRatio="xMidYMid meet">
<metadata>
Created by potrace 1.11, written by Peter Selinger 2001-2013
</metadata>
<g transform="translate(0.000000,1024.000000) scale(0.100000,-0.100000)"
fill="#000000" stroke="none">
<path d="M9077 9351 c-36 -23 -51 -46 -77 -112 -11 -30 -25 -63 -29 -74 -5
-11 -52 -130 -105 -265 -52 -135 -136 -348 -186 -475 -96 -241 -299 -757 -444
-1130 -48 -121 -91 -229 -96 -240 -5 -11 -24 -60 -43 -110 -20 -49 -96 -243
-170 -430 -74 -187 -151 -384 -172 -437 l-38 -97 -186 -82 c-102 -45 -208 -92
-236 -105 -79 -36 -679 -302 -800 -354 -60 -27 -207 -91 -326 -143 -208 -91
-217 -94 -209 -68 21 72 213 584 245 656 8 17 32 75 54 130 36 92 191 449 255
590 16 33 34 74 41 90 12 26 96 208 200 430 62 134 168 351 310 641 78 160
149 309 156 330 7 22 13 79 13 129 -1 96 -17 150 -70 227 -39 55 -113 80 -164
53 -59 -30 -68 -47 -246 -465 -58 -135 -116 -270 -129 -300 -34 -79 -242 -601
-275 -690 -159 -429 -222 -607 -303 -855 -89 -270 -108 -327 -142 -445 -15
-51 -104 -357 -110 -380 -2 -8 -18 -69 -35 -135 -17 -66 -37 -125 -43 -131 -7
-6 -64 -32 -127 -58 -63 -26 -128 -53 -145 -61 -16 -7 -54 -21 -84 -30 -85
-28 -126 -82 -86 -115 29 -24 73 -17 233 37 90 30 165 53 167 51 4 -3 -172
-528 -309 -928 -240 -696 -346 -1047 -380 -1260 -12 -77 -10 -110 11 -145 9
-16 15 -17 37 -7 39 18 57 60 117 272 6 19 16 53 24 75 7 22 30 96 51 165 20
69 61 195 91 280 30 85 70 198 88 250 61 174 163 464 200 570 49 140 85 241
95 265 5 11 48 134 96 272 48 139 90 257 94 263 6 10 10 12 495 186 176 64
363 131 415 150 52 20 151 56 220 81 69 25 134 49 145 54 11 4 83 31 160 59
77 28 164 61 193 72 29 11 54 19 56 17 2 -4 -206 -534 -248 -632 -9 -20 -16
-39 -16 -42 0 -5 -113 -284 -130 -320 -5 -11 -58 -139 -118 -285 -226 -550
-295 -716 -308 -745 -7 -16 -108 -262 -224 -545 -116 -283 -217 -528 -225
-545 -7 -16 -45 -111 -84 -210 -40 -99 -76 -189 -81 -200 -5 -11 -25 -63 -45
-115 -20 -52 -40 -104 -45 -115 -5 -11 -30 -74 -55 -140 -25 -66 -50 -129 -55
-140 -5 -11 -57 -141 -115 -290 -58 -148 -109 -279 -114 -290 -34 -76 -55
-145 -56 -176 0 -41 19 -69 45 -69 24 0 67 36 76 63 6 20 521 1226 564 1320
30 67 243 569 295 697 34 83 265 631 280 665 8 17 25 57 38 90 47 117 673
1602 712 1690 63 141 185 428 185 434 0 5 100 46 223 91 447 166 753 283 802
307 65 33 152 96 193 142 36 40 72 110 72 140 0 94 -109 126 -255 76 -44 -15
-93 -33 -110 -40 -16 -8 -75 -32 -130 -56 -55 -23 -120 -50 -145 -61 -94 -42
-116 -52 -294 -127 l-184 -78 13 31 c20 48 174 407 190 441 7 17 22 50 33 75
11 25 32 74 47 110 14 36 32 79 40 95 7 17 64 147 125 290 172 399 300 695
326 753 13 29 24 55 24 57 0 2 11 28 24 57 57 126 415 968 430 1013 64 186
-70 400 -197 316z"/>
<path d="M4945 7913 c-16 -2 -73 -12 -125 -23 -52 -10 -107 -21 -121 -24 -183
-32 -654 -193 -959 -327 -146 -64 -557 -276 -705 -363 -497 -293 -862 -579
-1195 -935 -61 -65 -210 -261 -210 -276 0 -2 -11 -21 -25 -41 -72 -106 -138
-283 -153 -413 -18 -152 24 -219 163 -264 44 -15 91 -28 105 -31 14 -3 36 -7
50 -11 148 -33 519 -36 1100 -10 552 25 998 24 1185 -1 243 -33 309 -51 440
-115 85 -42 135 -82 176 -139 73 -101 83 -248 28 -395 -23 -62 -154 -263 -214
-330 -109 -120 -234 -241 -325 -315 -24 -19 -48 -40 -54 -45 -6 -6 -47 -38
-91 -73 -44 -34 -84 -65 -90 -70 -117 -93 -688 -445 -1295 -799 -146 -85 -272
-158 -280 -163 -90 -55 -363 -202 -456 -246 -377 -178 -932 -383 -1374 -507
-185 -52 -262 -72 -442 -113 l-78 -18 0 -253 c0 -164 4 -253 10 -253 52 0 845
263 995 330 11 5 90 37 175 71 557 221 815 355 1609 833 211 127 399 240 418
251 18 11 130 81 248 155 118 74 223 140 233 145 35 21 200 135 268 186 153
115 321 264 462 407 87 89 131 140 235 272 81 102 205 340 243 465 24 81 27
106 28 245 1 166 -10 227 -59 334 -83 181 -277 332 -538 420 -195 66 -366 94
-737 122 -30 2 -219 6 -420 9 -1105 15 -999 11 -1148 46 -186 43 -208 89 -123
259 84 168 181 278 407 461 480 390 1292 774 2104 995 136 37 409 99 480 109
24 4 47 8 51 10 3 2 32 7 65 10 32 3 66 8 74 10 18 5 151 14 282 20 132 6 168
31 168 116 0 106 -141 222 -314 259 -58 12 -213 19 -271 13z"/>
</g>
</svg>
